<?xml version="1.0" encoding="UTF-8"?>
<svg id="Layer_2" data-name="Layer 2" xmlns="http://www.w3.org/2000/svg" viewBox="0 0 72.08 15.82">
  <defs>
    <style>
      .cls-1 {
        fill: #8dc63f;
      }

      .cls-2 {
        fill: #ed1c24;
      }

      .cls-3 {
        fill: #8b5e3c;
      }

      .cls-4 {
        fill: #00aeef;
      }

      .cls-5 {
        fill: #fff;
      }

      .cls-6 {
        fill: #808285;
      }

      .cls-7 {
        fill: #2e3192;
      }

      .cls-8 {
        fill: #fff200;
      }
    </style>
  </defs>
  <g id="Layer_1-2" data-name="Layer 1">
    <g>
      <path class="cls-5" d="M18.78.35v8.73h-1.34V.35h1.34Z"/>
      <path class="cls-5" d="M24.34,9.2c-.75,0-1.43-.18-2.02-.54s-1.06-.87-1.4-1.54-.51-1.47-.51-2.4.17-1.74.51-2.41.81-1.18,1.4-1.54,1.27-.54,2.02-.54c.46,0,.89.07,1.3.2s.77.33,1.08.58.58.56.79.93.35.78.42,1.24h-1.34c-.05-.28-.15-.52-.29-.74s-.31-.39-.51-.54-.42-.26-.67-.33-.51-.11-.78-.11c-.5,0-.95.13-1.34.38s-.71.62-.93,1.11-.34,1.08-.34,1.78.12,1.3.35,1.78.54.85.94,1.1.84.37,1.34.37c.27,0,.53-.04.78-.11s.47-.19.67-.33.37-.33.51-.54.24-.46.29-.73h1.35c-.07.43-.2.82-.4,1.18s-.46.67-.78.93-.68.47-1.09.61-.85.21-1.33.21Z"/>
      <path class="cls-5" d="M29.51,9.08V.35h3.13c.67,0,1.23.12,1.68.38s.79.59,1.01,1.01.33.91.33,1.45-.11,1.02-.34,1.45-.56.77-1.01,1.01-1.01.37-1.69.37h-2.14v-1.13h2.01c.43,0,.78-.07,1.04-.22s.46-.35.58-.61.18-.55.18-.87-.06-.62-.18-.88-.32-.46-.59-.6-.62-.22-1.05-.22h-1.64v7.59h-1.34Z"/>
      <path class="cls-5" d="M37.76,1.53c-.22,0-.41-.08-.57-.23s-.24-.33-.24-.54.08-.4.24-.54.35-.22.57-.22.41.07.57.22.24.33.24.54-.08.39-.24.54-.35.22-.57.22ZM37.11,9.08V2.53h1.29v6.55h-1.29Z"/>
      <path class="cls-5" d="M39.6,9.08l2.57-3.86v1s-2.44-3.69-2.44-3.69h1.45l.74,1.2c.2.33.38.64.54.94s.31.59.47.87h-.59c.17-.28.32-.57.46-.87s.32-.62.53-.94l.76-1.2h1.43l-2.46,3.72v-.97l2.55,3.8h-1.45l-.88-1.39c-.2-.32-.38-.63-.53-.93s-.31-.58-.47-.85h.6c-.16.27-.3.56-.45.85s-.31.6-.52.93l-.89,1.39h-1.44Z"/>
      <path class="cls-5" d="M49.38,9.22c-.64,0-1.2-.14-1.67-.42s-.83-.67-1.08-1.17-.38-1.1-.38-1.78.12-1.26.37-1.78.6-.91,1.05-1.2.98-.43,1.59-.43c.38,0,.74.06,1.08.18s.66.32.94.58.5.6.66,1.02.24.92.24,1.51v.46h-5.22v-.96h4.56l-.6.32c0-.4-.06-.76-.19-1.06s-.31-.55-.55-.72-.55-.26-.92-.26-.67.09-.93.26-.45.41-.59.69-.2.6-.2.94v.66c0,.45.08.83.23,1.14s.37.54.65.7.6.24.97.24c.24,0,.46-.03.66-.1s.36-.17.51-.31.25-.31.33-.51l1.21.29c-.11.34-.28.63-.53.89s-.56.46-.93.6-.79.21-1.26.21Z"/>
      <path class="cls-5" d="M54.9.35v8.73h-1.29V.35h1.29Z"/>
    </g>
    <rect class="cls-8" x="16.16" y="11.93" width="3.89" height="3.89"/>
    <rect class="cls-6" x="47.28" y="11.93" width="3.89" height="3.89"/>
    <rect class="cls-2" x="7.79" y="8.03" width="3.89" height="3.89"/>
    <rect class="cls-4" x="11.68" y="3.89" width="3.89" height="3.89"/>
    <rect class="cls-4" x="68.18" y="11.93" width="3.89" height="3.89"/>
    <rect class="cls-3" x="31.72" y="11.93" width="3.89" height="3.89"/>
    <rect class="cls-2" x="56.49" y=".5" width="3.89" height="3.89"/>
    <rect class="cls-7" y="11.93" width="3.89" height="3.89"/>
    <rect class="cls-1" x="60.39" y="8.03" width="3.89" height="3.89"/>
  </g>
</svg>